<svg height="119.357" viewBox="0 0 275.201 111.897" width="293.548" xmlns="http://www.w3.org/2000/svg">
  <g fill="#36c" stroke-width="2.3">
    <path d="M135.638 52.748V22.631h18.544v3.399h-14.973v9.852h13.295v3.4h-13.295v13.466zM164.03 35.882h3.743q1.893 0 3.098-.473 1.247-.516 1.979-1.248.731-.731 1.032-1.635.302-.903.302-1.72 0-.947-.517-1.808-.473-.903-1.334-1.548-.817-.689-2.022-1.076-1.161-.387-2.495-.387h-3.786zm-3.571 16.866V22.631h7.099q1.463 0 3.227.473 1.807.43 3.355 1.42 1.55.99 2.582 2.538 1.033 1.55 1.033 3.743 0 3.227-1.635 5.422-1.592 2.15-4.69 2.84l6.454 13.681h-3.873l-6.324-13.424h-3.657v13.424zM182.983 37.733q0-3.141 1.205-5.938 1.205-2.84 3.27-4.948 2.108-2.108 4.905-3.313 2.797-1.247 5.98-1.247 3.141 0 5.938 1.247 2.84 1.205 4.948 3.313 2.108 2.108 3.313 4.948 1.247 2.797 1.247 5.938 0 3.183-1.247 5.98-1.205 2.797-3.313 4.905-2.108 2.065-4.948 3.27-2.797 1.204-5.938 1.204-3.183 0-5.98-1.204-2.797-1.205-4.905-3.27-2.065-2.108-3.27-4.905t-1.205-5.98zm3.572 0q0 2.495.903 4.69.947 2.15 2.539 3.785 1.635 1.592 3.786 2.539 2.151.946 4.603.946 2.453 0 4.604-.946 2.151-.947 3.743-2.539 1.635-1.635 2.539-3.786.946-2.194.946-4.69 0-2.495-.946-4.646-.904-2.194-2.539-3.83-1.592-1.634-3.743-2.58-2.151-.947-4.604-.947-2.452 0-4.603.946-2.151.947-3.786 2.582-1.592 1.635-2.539 3.829-.903 2.151-.903 4.647zM247.041 22.63v31.495q-5.55-5.894-11.014-11.703-5.465-5.808-11.015-11.703-.215-.3-.43-.559-.172-.258-.387-.56.043.345.043.69l.086.688v21.77h-3.571V21.254q5.55 6.023 11.014 11.96 5.464 5.895 11.015 11.919.215.301.387.56.215.257.43.558l-.086-.688q0-.344-.043-.688V22.63zM275.2 22.63v3.4h-10.067v26.718h-3.571V26.03h-10.154v-3.4z"/>
  </g>
  <g fill="#fc0" stroke-width="2.8">
    <path d="M133.984 90.822V60.704h17.855v1.721h-16.091v12.349h14.413v1.72h-14.413v14.328zM159.278 90.822V60.704h17.855v1.721h-16.091v12.349h14.413v1.72h-14.413v12.607h16.693v1.72zM200.09 63.243q-.302.344-.56.688-.215.344-.473.689-.387-.345-.947-.732-.56-.43-1.334-.774-.73-.387-1.677-.603-.904-.258-1.98-.258-1.506 0-2.624.517-1.119.473-1.893 1.333-.732.818-1.119 1.937-.344 1.075-.344 2.237 0 1.248.387 2.151.43.86 1.119 1.463.731.602 1.72 1.076.99.43 2.152.817 1.377.473 3.055 1.076 1.72.559 3.227 1.592 1.506.99 2.495 2.538 1.033 1.506 1.033 3.83 0 1.892-.732 3.441-.688 1.55-1.936 2.668-1.205 1.075-2.883 1.678-1.634.56-3.485.56-1.678 0-3.14-.431-1.42-.43-2.539-1.076-1.118-.645-1.979-1.377-.817-.731-1.29-1.29l1.204-1.205q.602.602 1.377 1.248.774.645 1.678 1.204.946.517 2.065.86 1.119.345 2.41.345 1.462 0 2.796-.43 1.334-.473 2.366-1.29 1.033-.861 1.635-2.066.646-1.205.646-2.754 0-1.936-.86-3.184-.861-1.247-2.152-2.065-1.248-.817-2.754-1.334-1.506-.516-2.796-.946-.818-.258-1.936-.688-1.076-.43-2.109-1.205-.99-.775-1.764-1.936-.731-1.205-.774-2.969-.086-1.42.301-2.84.43-1.463 1.377-2.581.946-1.162 2.452-1.893 1.506-.732 3.657-.732 1.635 0 3.313.56 1.721.559 3.614 2.15zM229.077 60.704v1.721h-11.015v28.397h-1.764V62.425h-11.014v-1.72z"/>
  </g>
  <g fill-rule="evenodd">
    <path d="M69.897 29.715l12.418 12.457-39.97 40.26-12.756-12.768" fill="#fc0"/>
    <path d="M43.956 39.067l-10.75-10.75L0 61.605l21.467-.046z" fill="#ff3b3b"/>
    <path d="M67.983 72.835l10.75 10.75 33.206-33.293-21.467.046z" fill="#96b9ff"/>
    <path d="M61.095 101.224L50.42 111.897 0 61.605l21.467-.046z" fill="#fd0000"/>
    <path d="M50.844 10.673L61.517 0l50.422 50.292-21.467.046z" fill="#69f"/>
    <path d="M42.327 82.443V57.058L29.571 69.675z" fill="#ff3b3b"/>
    <path d="M69.88 29.726l-.072 25.139 12.507-12.693z" fill="#96b9ff"/>
  </g>
</svg>