<svg xmlns="http://www.w3.org/2000/svg" viewBox="0 0 512 512">
  <g fill="#dedede">
    <path d="M156.006 92.548H20.216C9.051 92.548 0 101.599 0 112.764v77.31c0 11.274 9.229 20.123 20.503 20.193 25.086.155 45.447 20.61 45.447 45.733s-20.361 45.579-45.447 45.733C9.229 301.804 0 310.653 0 321.926v77.31c0 11.164 9.051 20.216 20.216 20.216h135.791a6.739 6.739 0 0 0 6.739-6.739V99.287a6.74 6.74 0 0 0-6.74-6.739zM492.26 210.312c10.974-.373 19.74-9.23 19.74-20.21v-77.338c0-11.164-9.051-20.216-20.216-20.216h-281.87a6.739 6.739 0 0 0-6.739 6.739v313.426a6.74 6.74 0 0 0 6.739 6.739h281.87c11.164 0 20.216-9.051 20.216-20.216v-77.338c0-10.98-8.767-19.837-19.74-20.21-58.415-1.988-58.554-89.383 0-91.376zm-95.766 103.015H270.456c-11.164 0-20.216-9.051-20.216-20.216s9.051-20.216 20.216-20.216h126.037c11.164 0 20.216 9.051 20.216 20.216s-9.051 20.216-20.215 20.216zm0-74.223H270.456c-11.164 0-20.216-9.051-20.216-20.216s9.051-20.216 20.216-20.216h126.037c11.164 0 20.216 9.051 20.216 20.216s-9.051 20.216-20.215 20.216z"/>
  </g>
</svg>
